<svg width="16" xmlns="http://www.w3.org/2000/svg" height="16" fill="none"><g class="fills"><rect rx="0" ry="0" width="16" height="16" class="frame-background"/></g><g class="frame-children"><path d="M8 7.25a.75.75 0 1 1 0 1.5.75.75 0 0 1 0-1.5Z" class="fills"/><g class="strokes"><path d="M8 7.25a.75.75 0 1 1 0 1.5.75.75 0 0 1 0-1.5Z" style="fill: none; stroke-width: 1; stroke: rgb(143, 157, 163); stroke-opacity: 1; stroke-linecap: round;" class="stroke-shape"/></g><path d="M8 2.25a.75.75 0 1 1 0 1.5.75.75 0 0 1 0-1.5Z" class="fills"/><g class="strokes"><path d="M8 2.25a.75.75 0 1 1 0 1.5.75.75 0 0 1 0-1.5Z" style="fill: none; stroke-width: 1; stroke: rgb(143, 157, 163); stroke-opacity: 1; stroke-linecap: round;" class="stroke-shape"/></g><path d="M8 12.25a.75.75 0 1 1 0 1.5.75.75 0 0 1 0-1.5Z" class="fills"/><g class="strokes"><path d="M8 12.25a.75.75 0 1 1 0 1.5.75.75 0 0 1 0-1.5Z" style="fill: none; stroke-width: 1; stroke: rgb(143, 157, 163); stroke-opacity: 1; stroke-linecap: round;" class="stroke-shape"/></g></g></svg>