<svg width="16" xmlns="http://www.w3.org/2000/svg" height="16" fill="none"><defs><clipPath id="a" class="frame-clip frame-clip-def"><rect rx="0" ry="0" width="16" height="16"/></clipPath></defs><g clip-path="url(#a)"><g class="fills"><rect rx="0" ry="0" width="16" height="16" class="frame-background"/></g><g class="frame-children"><path d="M6.06 5.918a2 2 0 0 1 3.887.667c0 1.333-2 2-2 2M8 11.252Zm6.666-3.334a6.668 6.668 0 1 1-13.332.162 6.668 6.668 0 0 1 13.332-.162Z" style="fill: none;" class="fills"/><g class="strokes"><path d="M6.06 5.918a2 2 0 0 1 3.887.667c0 1.333-2 2-2 2M8 11.252h0Zm6.666-3.334a6.668 6.668 0 1 1-13.332.162 6.668 6.668 0 0 1 13.332-.162Z" style="fill: none; stroke-width: 1; stroke: rgb(143, 157, 163); stroke-opacity: 1; stroke-linecap: round;" class="stroke-shape"/></g></g></g></svg>