<svg width="16" xmlns="http://www.w3.org/2000/svg" height="16" fill="none"><defs><clipPath id="a" class="frame-clip frame-clip-def"><rect rx="0" ry="0" width="16" height="16"/></clipPath></defs><g clip-path="url(#a)"><g class="fills"><rect rx="0" ry="0" width="16" height="16" class="frame-background"/></g><g class="frame-children"><path d="M6 8a2 2 0 0 1 2-2h4.667c1.103 0 2 .896 2 2v4.667c0 1.103-.897 2-2 2H8c-1.104 0-2-.897-2-2V8Zm-2.667 2h-.666a1.333 1.333 0 0 1-1.334-1.333v-6c0-.737.597-1.334 1.334-1.334h6c.736 0 1.333.597 1.333 1.334v.666" class="fills"/><g class="strokes"><path d="M6 8a2 2 0 0 1 2-2h4.667c1.103 0 2 .896 2 2v4.667c0 1.103-.897 2-2 2H8c-1.104 0-2-.897-2-2V8Zm-2.667 2h-.666a1.333 1.333 0 0 1-1.334-1.333v-6c0-.737.597-1.334 1.334-1.334h6c.736 0 1.333.597 1.333 1.334v.666" style="fill: none; stroke-width: 1; stroke: rgb(143, 157, 163); stroke-opacity: 1; stroke-linecap: round;" class="stroke-shape"/></g></g></g></svg>