<svg width="16" xmlns="http://www.w3.org/2000/svg" height="16" fill="none"><g class="fills"><rect rx="0" ry="0" width="16" height="16" class="frame-background"/></g><g class="frame-children"><path d="M14.111 3.556v3.333h-3.334m-8.888 5.555V9.111h3.334m-1.94-2.778a4.999 4.999 0 0 1 8.25-1.866l2.578 2.422M1.889 9.111l2.578 2.422a4.998 4.998 0 0 0 8.25-1.866M1.889 9.111Z" class="fills"/><g class="strokes"><path d="M14.111 3.556v3.333h-3.334m-8.888 5.555V9.111h3.334m-1.94-2.778a4.999 4.999 0 0 1 8.25-1.866l2.578 2.422M1.889 9.111l2.578 2.422a4.998 4.998 0 0 0 8.25-1.866M1.889 9.111h0Z" style="fill: none; stroke-width: 1; stroke: rgb(143, 157, 163); stroke-opacity: 1; stroke-linecap: round;" class="stroke-shape"/></g></g></svg>