<svg width="16" xmlns="http://www.w3.org/2000/svg" height="16" fill="none"><defs><clipPath id="a" class="frame-clip frame-clip-def"><rect rx="0" ry="0" width="16" height="16"/></clipPath></defs><g clip-path="url(#a)"><g class="fills"><rect rx="0" ry="0" width="16" height="16" class="frame-background"/></g><g class="frame-children"><path d="M14 10v2.667A1.335 1.335 0 0 1 12.667 14H3.333A1.335 1.335 0 0 1 2 12.667V10m2.667-3.333L8 10m0 0 3.333-3.333M8 10V2" class="fills"/><g class="strokes"><path d="M14 10v2.667A1.335 1.335 0 0 1 12.667 14H3.333A1.335 1.335 0 0 1 2 12.667V10m2.667-3.333L8 10m0 0 3.333-3.333M8 10V2" style="fill: none; stroke-width: 1; stroke: rgb(143, 157, 163); stroke-opacity: 1; stroke-linecap: round;" class="stroke-shape"/></g></g></g></svg>