<svg width="16" xmlns="http://www.w3.org/2000/svg" height="16" fill="none"><g class="fills"><rect rx="0" ry="0" width="16" height="16" class="frame-background"/></g><g class="frame-children"><path d="M2 4h12m-1.333 0v9.333c0 .737-.597 1.334-1.334 1.334H4.667a1.334 1.334 0 0 1-1.334-1.334V4m2 0V2.667c0-.737.597-1.334 1.334-1.334h2.666c.737 0 1.334.597 1.334 1.334V4m-4 3.333v4m2.666-4v4" class="fills"/><g class="strokes"><path d="M2 4h12m-1.333 0v9.333c0 .737-.597 1.334-1.334 1.334H4.667a1.334 1.334 0 0 1-1.334-1.334V4m2 0V2.667c0-.737.597-1.334 1.334-1.334h2.666c.737 0 1.334.597 1.334 1.334V4m-4 3.333v4m2.666-4v4" style="fill: none; stroke-width: 1; stroke: rgb(143, 157, 163); stroke-opacity: 1; stroke-linecap: round;" class="stroke-shape"/></g></g></svg>